<svg width="58" height="58" viewBox="0 0 58 58" fill="none" xmlns="http://www.w3.org/2000/svg">
<g filter="url(#filter0_dd_133_3336)">
<path d="M4 25C4 11.1929 15.1929 0 29 0C42.8071 0 54 11.1929 54 25C54 38.8071 42.8071 50 29 50H4V25Z" fill="#0156FF"/>
<path d="M27.8915 17.0905C28.2413 16.2922 29.3737 16.2922 29.7234 17.0905L31.6785 21.5526C31.8236 21.8838 32.1361 22.1108 32.4958 22.1464L37.3437 22.627C38.211 22.7129 38.5609 23.7899 37.9098 24.3692L34.2702 27.6075C34.0001 27.8478 33.8808 28.2151 33.958 28.5683L34.9991 33.3274C35.1853 34.1788 34.2692 34.8444 33.5171 34.4042L29.3126 31.9434C29.0006 31.7608 28.6143 31.7608 28.3023 31.9434L24.0978 34.4042C23.3457 34.8444 22.4296 34.1788 22.6158 33.3274L23.6569 28.5683C23.7342 28.2151 23.6148 27.8478 23.3447 27.6075L19.7051 24.3692C19.054 23.7899 19.4039 22.7129 20.2712 22.627L25.1191 22.1464C25.4789 22.1108 25.7914 21.8838 25.9364 21.5526L27.8915 17.0905Z" fill="white"/>
</g>
<defs>
<filter id="filter0_dd_133_3336" x="0" y="0" width="58" height="58" filterUnits="userSpaceOnUse" color-interpolation-filters="sRGB">
<feFlood flood-opacity="0" result="BackgroundImageFix"/>
<feColorMatrix in="SourceAlpha" type="matrix" values="0 0 0 0 0 0 0 0 0 0 0 0 0 0 0 0 0 0 127 0" result="hardAlpha"/>
<feOffset dy="4"/>
<feGaussianBlur stdDeviation="2"/>
<feComposite in2="hardAlpha" operator="out"/>
<feColorMatrix type="matrix" values="0 0 0 0 0 0 0 0 0 0 0 0 0 0 0 0 0 0 0.25 0"/>
<feBlend mode="normal" in2="BackgroundImageFix" result="effect1_dropShadow_133_3336"/>
<feColorMatrix in="SourceAlpha" type="matrix" values="0 0 0 0 0 0 0 0 0 0 0 0 0 0 0 0 0 0 127 0" result="hardAlpha"/>
<feOffset dy="4"/>
<feGaussianBlur stdDeviation="2"/>
<feComposite in2="hardAlpha" operator="out"/>
<feColorMatrix type="matrix" values="0 0 0 0 0 0 0 0 0 0 0 0 0 0 0 0 0 0 0.25 0"/>
<feBlend mode="normal" in2="effect1_dropShadow_133_3336" result="effect2_dropShadow_133_3336"/>
<feBlend mode="normal" in="SourceGraphic" in2="effect2_dropShadow_133_3336" result="shape"/>
</filter>
</defs>
</svg>
